# xmcd
#
# Track frame offsets: 
#        182
#        21152
#        45100
#        62707
#        84230
#        104967
#        126612
#        152565
#        170592
#        192457
#        212175
#        234715
#        253620
#
# Disc length: 3685 seconds
#
# Revision: 7
# Processed by: cddbd v1.5.2PL0 Copyright (c) Steve Scherf et al.
# Submitted via: ExactAudioCopy v1.0b3
#
DISCID=b80e630d
DTITLE=Eric Benet - True To Myself
DYEAR=1996
DGENRE=Soul
TTITLE0=True To Myself
TTITLE1=I'll Be There
TTITLE2=If You Want Me To Stay
TTITLE3=Let's Stay Together (Midnight Mix)
TTITLE4=Just Friends
TTITLE5=Femininity
TTITLE6=While You Were Here
TTITLE7=Spiritual Thang
TTITLE8=Chains
TTITLE9=All In The Game
TTITLE10=More Than Just A Girlfriend
TTITLE11=What If We Was Cool
TTITLE12=Let's Stay Together
EXTD=ID3G: 14
EXTT0=
EXTT1=
EXTT2=
EXTT3=
EXTT4=
EXTT5=
EXTT6=
EXTT7=
EXTT8=
EXTT9=
EXTT10=
EXTT11=
EXTT12=
PLAYORDER=
